<svg width="355" height="113" viewBox="0 0 355 113" fill="none" xmlns="http://www.w3.org/2000/svg">
<path fill-rule="evenodd" clip-rule="evenodd" d="M94.472 14.5101C90.0847 6.91107 80.3678 4.30744 72.7688 8.69476L13.8004 42.7402C6.20131 47.1275 3.59769 56.8444 7.98501 64.4434C12.3723 72.0425 22.0892 74.6461 29.6882 70.2588L88.6566 36.2133C96.2557 31.826 98.8593 22.1092 94.472 14.5101Z" fill="#0795B0" stroke="#08ADCC" stroke-width="4.29747" stroke-linecap="round"/>
<path fill-rule="evenodd" clip-rule="evenodd" d="M94.431 98.4898C90.0436 106.089 80.3268 108.693 72.7277 104.305L13.7593 70.2598C6.16027 65.8725 3.55665 56.1556 7.94396 48.5566C12.3313 40.9575 22.0481 38.3539 29.6472 42.7412L88.6156 76.7866C96.2147 81.1739 98.8183 90.8908 94.431 98.4898Z" fill="#00CED1" stroke="#00E7EB" stroke-width="4.29747" stroke-linecap="round"/>
<path d="M159.682 89.6232C153.255 89.6232 147.701 88.2192 143.021 85.4113C138.404 82.5411 134.816 78.5788 132.258 73.5246C129.7 68.4081 128.42 62.4803 128.42 55.7414C128.42 49.0649 129.7 43.1996 132.258 38.1454C134.816 33.0288 138.404 29.0354 143.021 26.1651C147.701 23.2948 153.255 21.8597 159.682 21.8597C167.169 21.8597 173.253 23.6692 177.933 27.2882C182.675 30.8449 185.701 35.8367 187.012 42.2636H178.307C177.309 38.2078 175.25 34.9631 172.13 32.5296C169.072 30.0337 164.923 28.7858 159.682 28.7858C155.002 28.7858 150.915 29.8777 147.42 32.0616C143.926 34.1831 141.212 37.2718 139.278 41.3276C137.406 45.3211 136.47 50.1257 136.47 55.7414C136.47 61.3572 137.406 66.193 139.278 70.2488C141.212 74.2422 143.926 77.3309 147.42 79.5148C150.915 81.6363 155.002 82.6971 159.682 82.6971C164.923 82.6971 169.072 81.5115 172.13 79.1404C175.25 76.7069 177.309 73.4934 178.307 69.5H187.012C185.701 75.8021 182.675 80.7315 177.933 84.2882C173.253 87.8448 167.169 89.6232 159.682 89.6232ZM195.971 88.5V21.1109H203.833V88.5H195.971ZM230.291 89.6232C226.422 89.6232 223.209 88.968 220.651 87.6576C218.092 86.3473 216.189 84.6002 214.941 82.4163C213.693 80.2324 213.069 77.8613 213.069 75.303C213.069 70.5608 214.879 66.9105 218.498 64.3522C222.117 61.7939 227.046 60.5148 233.286 60.5148H245.828V59.9532C245.828 55.8974 244.767 52.8399 242.646 50.7808C240.524 48.6593 237.685 47.5986 234.128 47.5986C231.071 47.5986 228.419 48.3785 226.173 49.9385C223.989 51.436 222.616 53.6511 222.054 56.5838H214.005C214.317 53.2143 215.44 50.3752 217.375 48.0665C219.371 45.7578 221.836 44.0107 224.769 42.8252C227.701 41.5772 230.821 40.9532 234.128 40.9532C240.618 40.9532 245.485 42.7004 248.729 46.1946C252.036 49.6265 253.69 54.2127 253.69 59.9532V88.5H246.67L246.202 80.17C244.892 82.7906 242.958 85.0369 240.399 86.9089C237.903 88.7184 234.534 89.6232 230.291 89.6232ZM231.508 82.9778C234.503 82.9778 237.061 82.1979 239.183 80.6379C241.366 79.078 243.02 77.0501 244.143 74.5542C245.266 72.0583 245.828 69.4376 245.828 66.6921V66.5985H233.941C229.324 66.5985 226.048 67.4097 224.114 69.032C222.242 70.592 221.306 72.5575 221.306 74.9286C221.306 77.3621 222.179 79.3276 223.926 80.8251C225.736 82.2603 228.263 82.9778 231.508 82.9778ZM275.26 88.5L257.664 42.0764H265.901L279.846 80.9187L293.886 42.0764H301.935L284.339 88.5H275.26ZM327.308 89.6232C322.878 89.6232 318.947 88.6248 315.515 86.6281C312.083 84.569 309.369 81.7299 307.372 78.1108C305.438 74.4918 304.471 70.2176 304.471 65.2882C304.471 60.4212 305.438 56.1782 307.372 52.5592C309.307 48.8777 311.99 46.0386 315.422 44.0419C318.916 41.9828 322.94 40.9532 327.495 40.9532C331.988 40.9532 335.857 41.9828 339.101 44.0419C342.408 46.0386 344.936 48.6905 346.683 51.9976C348.43 55.3046 349.303 58.8613 349.303 62.6675C349.303 63.3539 349.272 64.0403 349.21 64.7266C349.21 65.413 349.21 66.193 349.21 67.0665H312.239C312.427 70.6232 313.238 73.587 314.673 75.9581C316.17 78.2668 318.011 80.014 320.195 81.1995C322.441 82.3851 324.812 82.9778 327.308 82.9778C330.553 82.9778 333.267 82.2291 335.451 80.7315C337.635 79.234 339.226 77.2061 340.225 74.6478H347.993C346.745 78.9532 344.343 82.5411 340.786 85.4113C337.292 88.2192 332.799 89.6232 327.308 89.6232ZM327.308 47.5986C323.564 47.5986 320.226 48.7529 317.293 51.0616C314.423 53.3079 312.77 56.615 312.333 60.9828H341.535C341.348 56.8022 339.913 53.5263 337.229 51.1552C334.546 48.7841 331.239 47.5986 327.308 47.5986Z" fill="white"/>
</svg>
